<?xml version="1.0" encoding="utf-8"?>
<!-- Generator: Adobe Illustrator 26.0.1, SVG Export Plug-In . SVG Version: 6.00 Build 0)  -->
<svg version="1.1" id="Laag_1" xmlns="http://www.w3.org/2000/svg" xmlns:xlink="http://www.w3.org/1999/xlink" x="0px" y="0px"
	 viewBox="0 0 221.8 63.1" style="enable-background:new 0 0 221.8 63.1;" xml:space="preserve">
<style type="text/css">
	.st0{fill:#F1B71C;}
	.st1{fill:#194072;}
</style>
<g id="Placeholder_logo_x27_s_Jeugdhuis">
	<g>
		<g>
			<path class="st0" d="M64.9,13.9h4.2v17c0,5.2-3.2,8.2-8.4,8.2c-4.9,0-7.2-4.1-7.2-4.1l3.1-2.6c0,0,1.6,2.7,4.1,2.7
				c3.2,0,4.2-2.1,4.2-4C64.9,22.9,64.9,13.9,64.9,13.9z"/>
			<path class="st0" d="M90.4,30.2c0,0.3,0,1,0,1.6H77.8c0.3,1.5,2.1,3.4,4.7,3.4c2.9,0,4.6-1.7,4.6-1.7l2.1,3.2
				c0,0-2.6,2.4-6.7,2.4c-5.1,0-9-3.9-9-8.8s3.6-8.8,8.4-8.8C86.5,21.5,90.4,25.1,90.4,30.2z M86.1,28.7c-0.1-1.4-1.4-3.4-4.2-3.4
				c-2.7,0-4,1.9-4.1,3.4H86.1z"/>
			<path class="st0" d="M94.2,32.8V21.9h4.2v9.7c0,2.5,1.2,3.5,3.3,3.5c2.2,0,3.3-2.1,3.3-2.1V21.9h4.2v16.8h-4v-2.4
				c0,0-1.6,2.9-5,2.9C97.1,39.1,94.2,36.8,94.2,32.8z"/>
			<path class="st0" d="M121.3,39.1c-4.4,0-8.2-3.6-8.2-8.8s3.8-8.8,8.2-8.8c3.5,0,5.1,2.6,5.1,2.6v-2.2h3.9v16.9
				c0,5.8-4.3,8.4-9,8.4c-4.8,0-8-3.2-8-3.2l2.4-3.2c0,0,2.3,2.5,5.6,2.5c3.3,0,4.8-1.8,4.8-4.3v-2C125.5,37.7,124,39.1,121.3,39.1z
				 M126.1,27.8c0,0-1.2-2.3-4-2.3c-2.9,0-4.6,2.1-4.6,4.8s1.7,4.8,4.6,4.8c2.8,0,4-2.3,4-2.3V27.8z"/>
			<path class="st0" d="M151.3,38.7h-3.9v-2.2c0,0-1.4,2.6-5.1,2.6c-4.4,0-8.2-3.6-8.2-8.8s3.8-8.8,8.2-8.8c3.2,0,4.7,2.2,4.7,2.2
				V11.9h4.2L151.3,38.7L151.3,38.7z M147,27.8c0,0-1.2-2.3-4-2.3c-2.9,0-4.6,2.1-4.6,4.8s1.7,4.8,4.6,4.8c2.8,0,4-2.3,4-2.3V27.8z"
				/>
			<path class="st0" d="M172.3,27.8v10.9h-4.2v-9.8c0-2.4-1.5-3.4-3.3-3.4c-2.2,0-3.3,2.2-3.3,2.2v11h-4.2V11.9h4.2v12
				c0,0,1.5-2.4,4.7-2.4S172.3,23.8,172.3,27.8z"/>
			<path class="st0" d="M177.3,32.8V21.9h4.2v9.7c0,2.5,1.2,3.5,3.3,3.5c2.2,0,3.3-2.1,3.3-2.1V21.9h4.2v16.8h-4v-2.4
				c0,0-1.6,2.9-5,2.9C180.2,39.1,177.3,36.8,177.3,32.8z"/>
			<path class="st0" d="M200.2,13.7c1.6,0,2.8,1.2,2.8,2.8c0,1.6-1.2,2.8-2.8,2.8c-1.6,0-2.8-1.2-2.8-2.8
				C197.4,14.9,198.6,13.7,200.2,13.7z M198,21.9h4.2v16.8H198V21.9z"/>
			<path class="st0" d="M209.2,33c0,0,2.2,2.4,5.1,2.4c1.7,0,3.2-0.5,3.2-1.5c0-1.1-0.8-1.3-3.3-1.8c-3.3-0.7-6.2-2.1-6.2-5.3
				c0-2.6,2.6-5.2,7.2-5.2c3.8,0,6.3,2,6.3,2l-2.1,3.1c0,0-1.9-1.4-4.2-1.4c-1.6,0-3,0.6-3,1.6s1.1,1.3,4,1.9
				c3.3,0.7,5.7,1.8,5.7,5.3c0,2.9-3,5.2-7.3,5.2c-4.9,0-7.6-3-7.6-3L209.2,33z"/>
		</g>
		<g>
			<path class="st1" d="M74.3,55.8h3V57h-3V55.8z"/>
			<path class="st1" d="M82.2,51.3h2.7c1.6,0,2.6,1.1,2.6,2.5s-1.1,2.5-2.6,2.5h-1.3v2.8h-1.4L82.2,51.3L82.2,51.3z M86.2,53.8
				c0-0.7-0.5-1.2-1.4-1.2h-1.2v2.5h1.2C85.7,55.1,86.2,54.6,86.2,53.8z"/>
			<path class="st1" d="M89.1,51.3h1.4v6.6h3.4v1.3h-4.7L89.1,51.3L89.1,51.3z"/>
			<path class="st1" d="M97.4,51.3h1.4l3.1,7.9h-1.4l-0.7-1.9h-3.3l-0.7,1.9h-1.4L97.4,51.3z M96.9,56.1h2.4L98.1,53L96.9,56.1z"/>
			<path class="st1" d="M108.8,57.1l0.9,0.9c0,0-1,1.3-3,1.3c-2.3,0-4-1.7-4-4.1s1.7-4.1,4-4.1c1.9,0,2.9,1.2,2.9,1.2l-0.9,0.9
				c0,0-0.7-0.9-2-0.9c-1.6,0-2.6,1.3-2.6,2.8s1.1,2.8,2.6,2.8C108,58.1,108.8,57.1,108.8,57.1z"/>
			<path class="st1" d="M112.5,54.5h3.1v1.3h-3.1v2.1h3.5v1.3h-4.8v-7.9h4.8v1.3h-3.4L112.5,54.5L112.5,54.5z"/>
			<path class="st1" d="M122.5,51.3h1.4v7.9h-1.4v-3.4h-3.4v3.4h-1.4v-7.9h1.4v3.2h3.4V51.3z"/>
			<path class="st1" d="M133.4,55.2c0,2.3-1.7,4.1-4,4.1c-2.3,0-4-1.7-4-4.1s1.7-4.1,4-4.1C131.7,51.2,133.4,52.9,133.4,55.2z
				 M132.1,55.2c0-1.5-1-2.8-2.6-2.8c-1.6,0-2.6,1.3-2.6,2.8s1,2.8,2.6,2.8C131,58,132.1,56.8,132.1,55.2z"/>
			<path class="st1" d="M135.1,51.3h1.4v6.6h3.4v1.3h-4.7L135.1,51.3L135.1,51.3z"/>
			<path class="st1" d="M147.6,55.2c0,2.3-1.6,3.9-3.9,3.9h-2.5v-7.9h2.5C146,51.3,147.6,53,147.6,55.2z M146.2,55.2
				c0-1.4-1-2.7-2.5-2.7h-1.2v5.3h1.2C145.3,57.9,146.2,56.7,146.2,55.2z"/>
			<path class="st1" d="M150.6,54.5h3.1v1.3h-3.1v2.1h3.5v1.3h-4.8v-7.9h4.8v1.3h-3.4L150.6,54.5L150.6,54.5z"/>
			<path class="st1" d="M155.9,51.3h2.6c1.6,0,2.6,1,2.6,2.4c0,1.2-0.6,2.1-1.8,2.4l2,3.1h-1.6l-1.9-3h-0.6v3h-1.4L155.9,51.3
				L155.9,51.3z M159.7,53.8c0-0.8-0.5-1.2-1.4-1.2h-1.1v2.3h1.1C159.1,54.9,159.7,54.5,159.7,53.8z"/>
			<path class="st1" d="M166.6,51.3h1.4v6.6h3.4v1.3h-4.7V51.3z"/>
			<path class="st1" d="M180.2,55.2c0,2.3-1.7,4.1-4,4.1s-4-1.7-4-4.1s1.7-4.1,4-4.1S180.2,52.9,180.2,55.2z M178.8,55.2
				c0-1.5-1-2.8-2.6-2.8s-2.6,1.3-2.6,2.8s1,2.8,2.6,2.8S178.8,56.8,178.8,55.2z"/>
			<path class="st1" d="M187.1,57.7V56h-1.8v-1.3h3.1v3.6c0,0-1,1-2.9,1c-2.3,0-4.1-1.7-4.1-4.1s1.8-4.1,4.1-4.1
				c1.9,0,2.9,1.2,2.9,1.2l-0.9,0.9c0,0-0.6-0.8-2-0.8c-1.6,0-2.7,1.3-2.7,2.8s1.2,2.8,2.8,2.8C186.7,58.1,187.1,57.7,187.1,57.7z"
				/>
			<path class="st1" d="M197.8,55.2c0,2.3-1.7,4.1-4,4.1s-4-1.7-4-4.1s1.7-4.1,4-4.1S197.8,52.9,197.8,55.2z M196.5,55.2
				c0-1.5-1-2.8-2.6-2.8s-2.6,1.3-2.6,2.8s1,2.8,2.6,2.8S196.5,56.8,196.5,55.2z"/>
			<path class="st1" d="M200.8,55.8h3V57h-3V55.8z"/>
		</g>
		<g>
			<path class="st1" d="M29.2,38c0.1,0.8-1,1.5-2.5,1.8c-0.5,0.1-1.1,0.1-1.5,0c-0.3-0.1-0.6,0.1-0.7,0.5l-0.3,1.2l-0.3-2.7
				c-0.1-0.8,1-1.5,2.5-1.8C27.8,36.8,29.1,37.3,29.2,38z"/>
			<path class="st1" d="M20.4,37c1.5,0.2,2.6,1,2.5,1.8l-0.3,2.7l-0.3-1.2c-0.1-0.3-0.4-0.5-0.7-0.5c-0.4,0.1-0.9,0.1-1.5,0
				c-1.5-0.2-2.6-1-2.5-1.8S19,36.8,20.4,37z"/>
			<path class="st1" d="M33,46.5c0.7,0.2,1.6,0.8,1.6,1.7L31,47.5c-5-0.9-10-0.9-15,0l-3.6,0.7c0-0.9,0.9-1.5,1.6-1.7
				c0.2-0.1,0.4-0.1,0.6-0.1c5.9-1.3,12-1.3,17.8,0C32.6,46.4,32.8,46.5,33,46.5z"/>
			<path class="st1" d="M0.4,37.1c-1.1-3.7,0.6-5.5,0.1-10.7c-0.2-1.7,1.4-2.7,3.4-2.7c0.3,0,0.6,0,0.9,0.1
				c-0.2,0.3-0.3,0.7-0.3,1.1l0,0.8c0,0,0,0.1,0,0.1c-0.2,0-0.5-0.1-0.7-0.1c-0.9,0-1.4,0.3-1.5,0.4c0,0,0,0,0,0
				c0.3,2.7,0,4.6-0.3,6.2c-0.2,1.6-0.4,2.7,0.1,4.1c0.3,0.9,0.8,1.7,1.4,2.2C4,36.1,4.4,33.6,4.8,31c-0.9,0.7-1.7,3.3-1.7,3.3
				c-0.6-2.7,1.1-4.8,1.1-4.8c-0.5-1-0.9-1.6-0.9-1.6C4,28.2,4.6,28.6,5.1,29c0.1-0.6,0.2-1.3,0.3-1.9c0.1,0.1,0.2,0.2,0.3,0.2
				c0,0,0,0,0.1,0.1C5.9,27.6,6,27.9,6,28.3c0.4,1.6,1,4.2,2,5.5c0.4,0.5,0.9,0.9,1.6,1.2c0.1,0.1,0.3,0.2,0.4,0.2
				c1.1,0.5,2.5,0.7,4.2,0.7c-1.7,2.1-4.5,5.9-4.8,9.7c-0.1,1.3,0.1,2.6,0.4,3.8c0.3,1.1,1.5,1.7,2.5,1.3c2-0.7,5.1-1.5,8.7-1.2
				c0,0-6.4,1.8-8.5,4.3c2,2,7.2,1.9,9.6,1.7c0.9-0.1,1.8-0.1,2.6,0c2.4,0.2,7.4,0.2,9.4-1.7c-2.1-2.5-8.5-4.3-8.5-4.3
				c3.6-0.3,6.7,0.4,8.7,1.2c1.1,0.4,2.2-0.2,2.5-1.3c0.4-1.2,0.5-2.4,0.4-3.8c-0.3-3.8-3-7.6-4.8-9.7c1.7,0,3.1-0.2,4.2-0.7
				c0.2-0.1,0.3-0.1,0.4-0.2c0.6-0.3,1.1-0.7,1.6-1.2c1-1.3,1.6-4,2-5.5c0.1-0.4,0.2-0.7,0.2-0.9c0-0.1,0.1-0.1,0.1-0.1
				c0.1-0.1,0.2-0.1,0.4-0.2c0.1,0.6,0.2,1.3,0.3,1.9c0.6-0.5,1.1-0.8,1.8-1.1c0,0-0.4,0.6-0.9,1.6c0,0,1.8,2.1,1.1,4.8
				c0,0-0.8-2.6-1.7-3.3c0.4,2.5,0.8,5.1,1.2,7.6c0.6-0.5,1.1-1.2,1.4-2.2c0.4-1.5,0.3-2.5,0.1-4.1c-0.2-1.5-0.5-3.4-0.3-6.2
				c0,0,0,0,0,0c-0.1-0.1-0.6-0.4-1.5-0.4c-0.2,0-0.5,0-0.7,0.1c0,0,0-0.1,0-0.1l0-0.8c0-0.4-0.1-0.8-0.3-1.1c0.3,0,0.6-0.1,0.9-0.1
				c2,0,3.6,1.1,3.4,2.7c-0.5,5.2,1.3,7,0.1,10.7c-0.5,1.6-1.4,2.8-2.6,3.6c0.8,1.7,1.5,4.2,0.9,7.1c0,0-0.3-1.1-0.8-2.3
				c0,0.1,0,0.1,0,0.2c0,0.9-0.1,4.8-2.4,7.3c0,0,0.2-0.8,0.2-2.1c-0.4,1.5-1.4,4.1-3.5,5.7c0,0,0.5-1.1,0.8-2.7c0,0,0,0,0,0
				c-0.5,1-2.2,4.2-5.1,5.5c0,0,0.8-1,1.4-2.5c0,0-0.1,0-0.1,0.1c-0.9,1-3,3.2-5.4,4.6c0,0,0.6-0.8,1.3-2c-1.2,0.9-3.3,2.4-5.5,3.3
				c0,0,0.4-0.4,0.9-1c-1.9,0.9-3.1,1.4-3.1,1.4s-1.2-0.5-3.1-1.4c0.5,0.6,0.9,1,0.9,1c-2.2-0.9-4.3-2.4-5.5-3.3
				c0.7,1.1,1.3,2,1.3,2c-2.4-1.4-4.5-3.6-5.3-4.6c0,0-0.1,0-0.1-0.1c0.7,1.6,1.4,2.5,1.4,2.5C10,58,8.3,54.8,7.8,53.8c0,0,0,0,0,0
				c0.3,1.6,0.8,2.7,0.8,2.7C6.4,55,5.4,52.4,5,50.9c0,1.2,0.2,2.1,0.2,2.1c-2.3-2.5-2.4-6.4-2.4-7.3c0-0.1,0-0.1,0-0.2
				c-0.5,1.2-0.8,2.3-0.8,2.3c-0.6-2.9,0.2-5.5,0.9-7.1C1.8,39.9,0.9,38.7,0.4,37.1z"/>
			<path class="st1" d="M15.4,36.2c0-0.1,0.1-0.1,0.1-0.2c0.6-0.7,1.5-0.9,2.3-0.9c0.3,0,0.7,0,1.1,0.1c1.5,0.2,3.3,0.6,4.4,0.6
				c0,0,0.2,0,0.2,0c1.1,0,2.8-0.4,4.4-0.6c0.4,0,0.7-0.1,1.1-0.1c0.9,0,1.7,0.3,2.3,0.9c0.1,0.1,0.1,0.1,0.1,0.2
				c0.9,1.2,0.7,3-0.6,3.9c0.2-1,0.1-2.1-0.6-3c-0.3-0.4-0.7-0.7-1.1-0.9c-0.7-0.3-1.4-0.3-2.1-0.2c-1,0.2-2.8,0.6-3.6,0.6
				c-0.8,0-2.6-0.4-3.6-0.6c-0.7-0.2-1.4-0.1-2.1,0.2c-0.4,0.2-0.8,0.5-1.1,0.9c-0.7,0.9-0.9,2-0.6,3C14.8,39.1,14.5,37.4,15.4,36.2
				z"/>
			<path class="st1" d="M45.3,21.4c3.4-1.5,6.6-3.7,5.7-6.7c-1-3.2-6.6-4.9-13.1-4.6C37,5.9,33.5,0,22.7,0.9
				c-0.1-0.6-0.1-1.2-1.9-0.8c-1.3,0.2-1.3,0.7-1.2,1.2c0,0,0,0,0,0.1c-1.2,0.3-3.3,0.9-6.6,2.3c0,0,0,0,0,0
				c-1.2,0.5-2.3,1.2-3.3,2.1C8.2,7.1,6.9,9,6.2,11.4c-0.9,3-1,6.8,0.2,11.5c0,0.1-0.1,0.2-0.1,0.2c-0.1,0.2-0.2,0.5-0.3,0.8
				c-0.3,0.2-0.5,0.6-0.5,1l0,0.8c0,0.4,0.3,0.7,0.6,0.9c0.2,0.1,0.4,0.3,0.5,0.7c0.3,0.9,0.9,4.7,2.1,6.1c1.2,1.5,3.6,1.8,5.6,1.8
				c0.4,0,0.7,0,1.1,0c2.8-0.1,4.7-1.4,5.5-3.5s1.2-3.9,1.7-4.5c0.3-0.3,0.6-0.3,0.8-0.3s0.6,0,0.8,0.3c0.5,0.6,0.9,2.4,1.7,4.5
				c0.8,2.1,2.6,3.4,5.5,3.5c0.3,0,0.7,0,1.1,0c2,0,4.4-0.3,5.6-1.8c1.2-1.5,1.8-5.2,2.1-6.1c0.1-0.4,0.3-0.6,0.5-0.7
				c0.4-0.2,0.6-0.5,0.6-0.9l0-0.8c0-0.5-0.2-0.9-0.7-1.1c-0.1-0.2-0.2-0.4-0.2-0.7v0c1-0.3,2.3-0.7,3.7-1.2
				C44.5,21.7,44.9,21.6,45.3,21.4z M33.3,25.7h3.1c0.7,0,1.4,0.6,1.4,1.3v1.6c0,0-0.5-1-1.6-1.8C35.2,26.2,33.3,25.7,33.3,25.7z
				 M14.9,25.7H18c0.7,0,1.3,0.6,1.3,1.3v1.6c0,0-0.5-1-1.6-1.8C16.8,26.2,14.9,25.7,14.9,25.7z M20.4,19.3l0.4,0
				c5.1-0.7,9.9-0.7,12.8,0.4c2.3,0.9,3.2,1.8,5.4,3.7c-1.4-0.2-2.9-0.3-4.3-0.3c-3.1,0-6.2,0.4-7.8,1c-1.1,0.3-2.3,0.8-3.4,0.8
				c-1.1,0-2.3-0.5-3.4-0.8c-1.6-0.5-4.7-1-7.8-1c-1.6,0-3.2,0.1-4.7,0.4c0.1-0.1,0.1-0.1,0.2-0.2c0.4-0.4,0.8-0.8,1.2-1.2
				C12.4,20.9,16.5,19.9,20.4,19.3z M40.4,22.4c0,0,12.2-5,9-6.8c-2.6-1.4-3.9-1.8-9.5-1.9c-6.5-0.1-10.5,0.5-18.2,3
				c-2.4,0.8-8.4,2.1-8.6,2.2c0,0,1.7-5.2,22.2-7.7c6.7-0.8,13.3,0.3,14.7,3.2C52.3,18.9,43,21.6,40.4,22.4z"/>
		</g>
	</g>
</g>
</svg>
