<?xml version="1.0" encoding="utf-8"?>
<!-- Generator: Adobe Illustrator 26.0.1, SVG Export Plug-In . SVG Version: 6.00 Build 0)  -->
<svg version="1.1" id="Laag_1" xmlns="http://www.w3.org/2000/svg" xmlns:xlink="http://www.w3.org/1999/xlink" x="0px" y="0px"
	 viewBox="0 0 51.1 63.2" style="enable-background:new 0 0 51.1 63.2;" xml:space="preserve">
<style type="text/css">
	.st0{fill:#194072;}
</style>
<g>
	<path class="st0" d="M29.2,37.9c0.1,0.8-1,1.5-2.5,1.8c-0.5,0.1-1.1,0.1-1.5,0c-0.3-0.1-0.6,0.1-0.7,0.5l-0.3,1.2l-0.3-2.7
		c-0.1-0.8,1-1.5,2.5-1.8C27.8,36.7,29.1,37.2,29.2,37.9z"/>
	<path class="st0" d="M20.4,36.9c1.5,0.2,2.6,1,2.5,1.8l-0.3,2.7l-0.3-1.2c-0.1-0.3-0.4-0.5-0.7-0.5c-0.4,0.1-0.9,0.1-1.5,0
		c-1.5-0.2-2.6-1-2.5-1.8S18.9,36.7,20.4,36.9z"/>
	<path class="st0" d="M33,46.4c0.7,0.2,1.6,0.8,1.6,1.7L31,47.4c-5-0.9-10-0.9-15,0l-3.6,0.7c0-0.9,0.9-1.5,1.6-1.7
		c0.2-0.1,0.4-0.1,0.6-0.1c5.9-1.3,12-1.3,17.8,0C32.6,46.3,32.8,46.4,33,46.4z"/>
	<path class="st0" d="M0.4,37c-1.1-3.7,0.6-5.5,0.1-10.7c-0.2-1.7,1.4-2.7,3.4-2.7c0.3,0,0.6,0,0.9,0.1c-0.2,0.3-0.3,0.7-0.3,1.1
		v0.8v0.1c-0.2,0-0.5-0.1-0.7-0.1c-0.9,0-1.4,0.3-1.5,0.4l0,0c0.3,2.7,0,4.6-0.3,6.2c-0.2,1.6-0.4,2.7,0.1,4.1
		c0.3,0.9,0.8,1.7,1.4,2.2c0.4-2.5,0.8-5.1,1.2-7.6C3.8,31.6,3,34.2,3,34.2c-0.6-2.7,1.1-4.8,1.1-4.8c-0.5-1-0.9-1.6-0.9-1.6
		c0.6,0.3,1.2,0.7,1.8,1.1c0.1-0.6,0.2-1.3,0.3-1.9c0.1,0.1,0.2,0.2,0.3,0.2c0,0,0,0,0.1,0.1c0.1,0.2,0.1,0.5,0.2,0.9
		c0.4,1.6,1,4.2,2,5.5c0.4,0.5,0.9,0.9,1.6,1.2c0.1,0.1,0.3,0.2,0.4,0.2c1.1,0.5,2.5,0.7,4.2,0.7c-1.7,2.1-4.5,5.9-4.8,9.7
		c-0.1,1.3,0.1,2.6,0.4,3.8c0.3,1.1,1.5,1.7,2.5,1.3c2-0.7,5.1-1.5,8.7-1.2c0,0-6.4,1.8-8.5,4.3c2,2,7.2,1.9,9.6,1.7
		c0.9-0.1,1.8-0.1,2.6,0c2.4,0.2,7.4,0.2,9.4-1.7c-2.1-2.5-8.5-4.3-8.5-4.3c3.6-0.3,6.7,0.4,8.7,1.2c1.1,0.4,2.2-0.2,2.5-1.3
		c0.4-1.2,0.5-2.4,0.4-3.8c-0.3-3.8-3-7.6-4.8-9.7c1.7,0,3.1-0.2,4.2-0.7c0.2-0.1,0.3-0.1,0.4-0.2c0.6-0.3,1.1-0.7,1.6-1.2
		c1-1.3,1.6-4,2-5.5c0.1-0.4,0.2-0.7,0.2-0.9c0-0.1,0.1-0.1,0.1-0.1c0.1-0.1,0.2-0.1,0.4-0.2c0.1,0.6,0.2,1.3,0.3,1.9
		c0.6-0.5,1.1-0.8,1.8-1.1c0,0-0.4,0.6-0.9,1.6c0,0,1.8,2.1,1.1,4.8c0,0-0.8-2.6-1.7-3.3c0.4,2.5,0.8,5.1,1.2,7.6
		c0.6-0.5,1.1-1.2,1.4-2.2c0.4-1.5,0.3-2.5,0.1-4.1c-0.2-1.5-0.5-3.4-0.3-6.2l0,0c-0.1-0.1-0.6-0.4-1.5-0.4c-0.2,0-0.5,0-0.7,0.1
		v-0.1v-0.8c0-0.4-0.1-0.8-0.3-1.1c0.3,0,0.6-0.1,0.9-0.1c2,0,3.6,1.1,3.4,2.7c-0.5,5.2,1.3,7,0.1,10.7c-0.5,1.6-1.4,2.8-2.6,3.6
		c0.8,1.7,1.5,4.2,0.9,7.1c0,0-0.3-1.1-0.8-2.3c0,0.1,0,0.1,0,0.2c0,0.9-0.1,4.8-2.4,7.3c0,0,0.2-0.8,0.2-2.1
		c-0.4,1.5-1.4,4.1-3.5,5.7c0,0,0.5-1.1,0.8-2.7l0,0c-0.5,1-2.2,4.2-5.1,5.5c0,0,0.8-1,1.4-2.5c0,0-0.1,0-0.1,0.1
		c-0.9,1-3,3.2-5.4,4.6c0,0,0.6-0.8,1.3-2c-1.2,0.9-3.3,2.4-5.5,3.3c0,0,0.4-0.4,0.9-1c-1.9,0.9-3.1,1.4-3.1,1.4s-1.2-0.5-3.1-1.4
		c0.5,0.6,0.9,1,0.9,1c-2.2-0.9-4.3-2.4-5.5-3.3c0.7,1.1,1.3,2,1.3,2c-2.4-1.4-4.5-3.6-5.3-4.6c0,0-0.1,0-0.1-0.1
		c0.7,1.6,1.4,2.5,1.4,2.5c-2.9-1.2-4.7-4.5-5.1-5.5l0,0c0.3,1.6,0.8,2.7,0.8,2.7c-2.1-1.5-3.1-4.1-3.5-5.7c0,1.2,0.2,2.1,0.2,2.1
		c-2.3-2.5-2.4-6.4-2.4-7.3c0-0.1,0-0.1,0-0.2C2.3,46.6,2,47.6,2,47.6c-0.6-2.9,0.2-5.5,0.9-7.1C1.8,39.8,0.8,38.6,0.4,37z"/>
	<path class="st0" d="M15.4,36.1c0-0.1,0.1-0.1,0.1-0.2c0.6-0.7,1.5-0.9,2.3-0.9c0.3,0,0.7,0,1.1,0.1c1.5,0.2,3.3,0.6,4.4,0.6h0.2
		c1.1,0,2.8-0.4,4.4-0.6c0.4,0,0.7-0.1,1.1-0.1c0.9,0,1.7,0.3,2.3,0.9c0.1,0.1,0.1,0.1,0.1,0.2c0.9,1.2,0.7,3-0.6,3.9
		c0.2-1,0.1-2.1-0.6-3c-0.3-0.4-0.7-0.7-1.1-0.9c-0.7-0.3-1.4-0.3-2.1-0.2c-1,0.2-2.8,0.6-3.6,0.6c-0.8,0-2.6-0.4-3.6-0.6
		c-0.7-0.2-1.4-0.1-2.1,0.2c-0.4,0.2-0.8,0.5-1.1,0.9c-0.7,0.9-0.9,2-0.6,3C14.7,39,14.5,37.3,15.4,36.1z"/>
	<path class="st0" d="M45.3,21.3c3.4-1.5,6.6-3.7,5.7-6.7c-1-3.2-6.6-4.9-13.1-4.6C37,5.8,33.5,0,22.7,0.9c-0.1-0.6-0.1-1.2-1.9-0.8
		c-1.3,0.2-1.3,0.7-1.2,1.2c0,0,0,0,0,0.1c-1.2,0.3-3.3,0.9-6.6,2.3l0,0c-1.2,0.5-2.3,1.2-3.3,2.1C8,7.3,6.8,9.1,6,11.5
		c-0.9,3-1,6.8,0.2,11.5c0,0.1-0.1,0.2-0.1,0.2C6,23.4,5.9,23.7,5.8,24c-0.3,0.2-0.5,0.6-0.5,1v0.8c0,0.4,0.3,0.7,0.6,0.9
		c0.2,0.1,0.4,0.3,0.5,0.7c0.3,0.9,0.9,4.7,2.1,6.1c1.2,1.5,3.6,1.8,5.6,1.8c0.4,0,0.7,0,1.1,0c2.8-0.1,4.7-1.4,5.5-3.5
		s1.2-3.9,1.7-4.5C22.7,27,23,27,23.2,27s0.6,0,0.8,0.3c0.5,0.6,0.9,2.4,1.7,4.5c0.8,2.1,2.6,3.4,5.5,3.5c0.3,0,0.7,0,1.1,0
		c2,0,4.4-0.3,5.6-1.8s1.8-5.2,2.1-6.1c0.1-0.4,0.3-0.6,0.5-0.7c0.4-0.2,0.6-0.5,0.6-0.9V25c0-0.5-0.2-0.9-0.7-1.1
		c-0.1-0.2-0.2-0.4-0.2-0.7l0,0c1-0.3,2.3-0.7,3.7-1.2C44.5,21.6,44.9,21.5,45.3,21.3z M33.2,25.6h3.1c0.7,0,1.4,0.6,1.4,1.3v1.7
		c0,0-0.5-1-1.6-1.8C35.2,26.1,33.2,25.6,33.2,25.6z M14.9,25.6H18c0.7,0,1.4,0.6,1.4,1.3v1.7c0,0-0.5-1-1.6-1.8
		C16.8,26.1,14.9,25.6,14.9,25.6z M20.4,19.2h0.4c5.1-0.7,9.9-0.7,12.8,0.4c2.3,0.9,3.2,1.8,5.4,3.7c-1.4-0.2-2.9-0.3-4.3-0.3
		c-3.1,0-6.2,0.4-7.8,1c-1.1,0.3-2.3,0.8-3.4,0.8s-2.3-0.5-3.4-0.8c-1.6-0.5-4.7-1-7.8-1c-1.6,0-3.2,0.1-4.7,0.4
		c0.1-0.1,0.1-0.1,0.2-0.2C8.2,22.8,8.6,22.4,9,22C12.3,20.8,16.4,19.8,20.4,19.2z M40.4,22.3c0,0,12.2-5,9-6.8
		c-2.6-1.4-3.9-1.8-9.5-1.9c-6.5-0.1-10.5,0.5-18.2,3c-2.4,0.8-8.4,2.1-8.6,2.2c0,0,1.7-5.2,22.2-7.7c6.7-0.8,13.3,0.3,14.7,3.2
		C52.3,18.8,43,21.5,40.4,22.3z"/>
</g>
</svg>
